# xmcd
#
# Track frame offsets:
#  150
#  15464
#  27595
#  43945
#  65450
#  90424
#  110242
#  126081
#  145802
#  157841
#  180217
#  198764
#  233264
#
# Disc length: 3842 seconds
#
# Revision: 0
# Processed by: cddbd v1.5.1PL2 Copyright (c) Steve Scherf et al.
# Submitted via: Collectorz.com_Music_Collector 6.9
#
DISCID=9c0f000d
DTITLE=Brothers and Sisters - Brothers and Sisters
DYEAR=2006
DGENRE=Americana
TTITLE0=New Life
TTITLE1=One Night
TTITLE2=Sunday Living
TTITLE3=Los Angeles
TTITLE4=I Want You
TTITLE5=Without You
TTITLE6=Old Age
TTITLE7=Lost and Found
TTITLE8=Breathing Lessons
TTITLE9=Old Love Letters
TTITLE10=Grass is Brown
TTITLE11=Going South
TTITLE12=Data track
EXTD=
EXTT0=
EXTT1=
EXTT2=
EXTT3=
EXTT4=
EXTT5=
EXTT6=
EXTT7=
EXTT8=
EXTT9=
EXTT10=
EXTT11=
EXTT12=
PLAYORDER=
